<svg version="1" xmlns="http://www.w3.org/2000/svg" width="2730.667" height="2730.667" viewBox="0 0 2048.000000 2048.000000"><path d="M712 181.6c-1.9.2-9.1.9-16 1.4-106.6 9.1-204.1 43.3-287 100.6-9.1 6.3-23.5 16.7-26.5 19.1-28.1 22.9-37.6 31.4-57.5 51.3-15.3 15.2-30.5 31.8-39.9 43.4-5.3 6.6-5.6 7.2-5.9 13.5-.3 5.7 0 7.3 2.5 12.1 5.3 10.1 15.6 14.9 36.9 17 34.4 3.6 68-3.8 92.8-20.4 9.5-6.5 15.5-12.1 25.1-23.5 8.1-9.7 27.6-29.6 38.5-39.2 74.6-65.8 167.9-108.6 271-124.3 32.2-4.9 49.6-6 89.5-6 48.7.1 80.6 3.1 128.5 12 12.1 2.3 41.8 8.7 45.2 9.8.7.3 9.3 2.6 19.2 5.2 19.8 5.1 22.2 5.1 28.6-.2 3.4-3 3.8-5.6 1.2-9.9-3.8-6.1-13.1-10.5-44.7-21.1-64.2-21.4-131.7-34.6-205.9-40.4-11.5-.9-86.9-1.2-95.6-.4zM907 347.7c-15.1.4-42 2.5-62.5 4.8C651.4 374.3 489 471 370.6 634.8c-8.1 11.3-8.6 12.5-8.6 21.2 0 5.8.5 7.8 3.3 13.1 5.3 10.3 15 15.8 32 18.1 12.3 1.6 43.9.4 55.5-2.1 12.3-2.7 28.3-8.1 37-12.5 16.9-8.5 35.7-24.2 44.4-37.1 26.4-38.8 70.3-83.1 118.3-119.1 48.8-36.7 108.4-67.7 167.5-87.1 115.8-37.9 245.4-40.7 382-8.1 11.8 2.9 22.5 5.1 23.6 5.1 3.9-.1 11.8-4.8 13.7-8.1 2.5-4.2 1-8.8-4.5-13.7-5.2-4.8-10.1-6.9-33.2-14.4-68.2-22.3-141.4-36.1-217.6-41.1-15.4-1-60.1-1.8-77-1.3z"/><path d="M996.3 521.1c-76.5 4.6-153.1 28.6-220.8 69.2-46.2 27.7-92.7 68.1-127.1 110.7-76.6 94.5-115.5 214.5-108.5 334.5 3.8 64.5 17.8 121 44.5 179.5 5 11 17.4 34.6 22.1 42.1.5.9 1.9 3.2 2.9 5 3 5.4 12.4 19.6 20.5 30.9 38.5 53.9 88.4 100.2 144.2 134.1 62 37.5 127.5 59.8 201.9 68.4 19 2.2 63.6 3.1 84.5 1.6 82.8-5.8 157.4-30 228-73.9 51.1-31.8 102.5-80.5 138.1-130.7 7.2-10.1 22.1-32.9 23.1-35.5.4-.8 2.7-4.9 5.1-9 6.7-11.3 20.2-39.6 27-56.5 36.8-92.1 44.8-192.1 23.2-290-16.5-74.3-51.9-146.3-101-205-11.8-14.1-16.4-19-32.9-35.4-37.9-37.6-77-65.6-125.3-89.7-76.9-38.5-161.8-55.6-249.5-50.3zm170.2 200.5c18.3 1.7 33.1 5.1 45.8 10.4l7.7 3.2v47.6c0 49.9-.5 56.8-4.3 63.8-2.5 4.3-9.8 9.7-15.5 11.5-10.4 3.1-29.7 2.2-63.2-2.8-14.7-2.2-21.1-2.7-39.5-2.7-21.4-.1-22.2 0-30 2.6-4.4 1.5-10.9 4.4-14.5 6.5-7.2 4.2-20.9 17.2-26 24.7-4.1 6-11 20-14.1 28.6l-2.4 6.5-.3 186.7-.2 186.8H869.3l-.7-6.1c-.3-3.4-.6-129.5-.6-280.1v-274l59.8.5c65 .4 65.1.4 72.7 6.2 6.8 5.2 9.5 14 9.5 31 0 5.9.4 10.7 1 11 .6.3 5.4-3.6 10.8-8.8 17.9-17.4 30.2-26.7 49.1-37.1 16.3-9 34.2-14.9 51.1-17 3.9-.5 36.8.3 44.5 1zM1803.8 783.1c-30.3 3.7-66.8 21.1-100.1 47.8-4.8 3.9-8.9 7.1-9.1 7.1-.2 0-.5-6.2-.8-13.8-.4-11.4-.8-14.4-2.6-17.8-2.6-5.1-7.1-9-12-10.4-2.3-.6-22-1-52.4-1H1578v451h116V941l8.3-8.1c32.5-32 67.6-47.7 92.2-41.4 18.4 4.8 29.1 19.4 33.9 46.5 3 16.8 3.6 41.8 3.6 166 .1 99.9.3 125.2 1.4 128.2 1.8 4.9 5.4 9.2 9.6 11.4 3.3 1.8 7 1.9 53.8 2.2l50.3.3-.4-151.3c-.2-136.9-.4-152.6-2-164.8-6.1-47.1-15.2-76.2-31.4-100.7-9.2-14-27.1-29.3-42.4-36.2-18.1-8.2-46.8-12.5-67.1-10zM104.3 944.2c.4 161.2.2 154.2 5.8 187.8 9.4 56.3 31.2 93.7 65.1 112 30.1 16.2 78.1 19 119.2 6.9 23.1-6.9 47.6-17.3 65.2-27.7l5.1-3 1.1 6.6c1.4 8 5.1 13.9 10.7 16.7 3.8 1.9 6.3 2 54.3 2.3l50.2.3V795H365l-.2 163.7-.3 163.7-11.5 7.9c-12.5 8.5-33 19-45.1 23.1-9.3 3.1-23.2 5.6-31.3 5.6-12.8-.1-21.3-3.7-30.6-13-12.9-12.8-20.7-33.8-25.2-67-1-7.4-1.2-37.2-.9-136.1.3-99.2.1-127.8-.9-131.9-1.6-6.6-7.6-13.3-13.5-14.9-2.7-.7-20.4-1.1-52.8-1.1h-48.8l.4 149.2zM1625.5 1364.6c-15.8 1.7-38.4 8.3-52.4 15.4-16.8 8.4-34.5 23.6-44.8 38.4-38.8 55.8-104.1 114.2-171.7 153.5-143.5 83.6-316 103.2-502 57.2-14.7-3.6-16.2-3.8-19.7-2.6-12.7 4.5-15 12.7-5.7 21 5.1 4.7 10 6.8 32.8 14.3 57.5 18.9 123.8 32.7 186 38.6 33.8 3.3 48.8 3.8 93.1 3.3 45.3-.5 58.3-1.3 91.4-5.8 151.6-20.3 281.7-85.2 387-193.1 27.8-28.4 56.5-62.8 77.2-92.4l4.8-6.9v-9c0-7.4-.4-9.8-2.3-13.2-4.4-8.3-11.6-13.6-23.5-17-5.1-1.5-40.6-2.7-50.2-1.7zM1713 1611.7c-23.5 2.5-46.3 10.5-62.5 22.1-8.9 6.3-13.3 10.6-22.2 21.2-24.6 29.6-64.1 63.3-103.7 88.3-7.5 4.8-13.8 8.7-14 8.7-.2 0-4.3 2.3-9.2 5.1-16.7 9.7-46.6 23.8-66.4 31.5-119.6 46.1-253.9 49.5-399.3 10-9.3-2.5-17.5-4.6-18.3-4.6-3.1 0-11.2 4.2-12.4 6.5-3.2 6 3.6 13.6 16.4 18.6 56.6 22 131.2 39.9 196.6 47.3 35.4 4.1 52.3 4.8 97.5 4.3 46-.5 55.1-1.1 91.4-6.3 127.8-18.2 240.2-74.4 331.6-165.9 18.7-18.7 41.7-44.3 44.8-49.8 2.7-5 2.3-13.2-1-19.7-5-9.7-15.9-14.9-35.5-17-9.2-.9-26.1-1.1-33.8-.3z"/></svg>